<svg width="65" height="65" viewBox="0 0 65 65" fill="none" xmlns="http://www.w3.org/2000/svg">
<path fill-rule="evenodd" clip-rule="evenodd" d="M43.2182 8.125H21.7818C20.4928 8.12495 19.35 8.12489 18.3877 8.21275C17.3439 8.30809 16.3257 8.51866 15.318 9.04332C14.3103 9.56798 13.5539 10.2814 12.8772 11.0819C12.2534 11.8198 11.5981 12.756 10.859 13.812L10.7967 13.901L9.1793 16.2115L9.09583 16.3308C8.05274 17.8208 7.13979 19.1248 6.51373 20.285C5.8373 21.5386 5.35489 22.8681 5.40047 24.4154C5.44605 25.9627 6.00592 27.2615 6.75499 28.473C7.44829 29.5945 8.43643 30.8425 9.56545 32.2684L24.0068 50.5101C24.9464 51.6972 25.7452 52.7061 26.4566 53.4769C27.1946 54.2766 28.0142 55.0201 29.058 55.5084C31.2393 56.5283 33.7607 56.5283 35.942 55.5084C36.9858 55.0201 37.8054 54.2766 38.5434 53.4769C39.2549 52.7061 40.0535 51.6972 40.9931 50.5101L55.4344 32.2684C56.5633 30.8425 57.5518 29.5945 58.2449 28.473C58.994 27.2615 59.5538 25.9627 59.5996 24.4154C59.6451 22.8681 59.1627 21.5386 58.4862 20.285C57.8603 19.1248 56.9473 17.8208 55.9041 16.3308L54.1409 13.8121C53.4018 12.756 52.7467 11.8198 52.1227 11.0819C51.4461 10.2814 50.6897 9.56798 49.6819 9.04332C48.6742 8.51866 47.6561 8.30809 46.6123 8.21275C45.65 8.12489 44.5074 8.12495 43.2182 8.125ZM26.6285 21.8148C27.4582 20.5703 27.1218 18.8887 25.8773 18.059C24.6327 17.2293 22.9512 17.5656 22.1215 18.8102L20.7674 20.8414C19.2989 23.0442 19.4541 25.9505 21.1489 27.9844L26.3569 34.2339C27.3144 35.383 29.0222 35.5382 30.1714 34.5805C31.3205 33.6231 31.4757 31.9153 30.518 30.7661L25.3101 24.5166C25.151 24.3257 25.1364 24.0528 25.2743 23.8461L26.6285 21.8148Z" fill="#8767CB"/>
</svg>
